<?xml version="1.0" encoding="iso-8859-1"?>
<!-- Generator: Adobe Illustrator 19.0.0, SVG Export Plug-In . SVG Version: 6.00 Build 0)  -->
<svg version="1.1" id="Layer_1" xmlns="http://www.w3.org/2000/svg" xmlns:xlink="http://www.w3.org/1999/xlink" x="0px" y="0px"
	 viewBox="0 0 512 512" style="enable-background:new 0 0 512 512;" xml:space="preserve">
<g>
	<g>
		<g>
			<path d="M405.333,213.874V106.667c0-23.531-19.146-42.667-42.667-42.667h-320C19.146,64,0,83.135,0,106.667V320
				c0,23.531,19.146,42.667,42.667,42.667h239.216C295.862,411.84,341.082,448,394.667,448C459.354,448,512,395.365,512,330.667
				C512,269.57,465.036,219.289,405.333,213.874z M42.667,85.333h320c0.443,0,0.814,0.225,1.25,0.253L211.688,210.604
				c-5.583,3.625-13.417,2.938-17.083,0.688L41.424,85.585C41.858,85.559,42.227,85.333,42.667,85.333z M277.874,341.333H42.667
				c-11.771,0-21.333-9.573-21.333-21.333V106.667c0-3.021,0.668-5.875,1.805-8.482l158.883,130.294
				c6.208,4.052,13.354,6.188,20.646,6.188c7.25,0,14.396-2.125,21.646-6.885L382.194,98.184c1.138,2.608,1.806,5.461,1.806,8.483
				v107.207c-59.703,5.415-106.667,55.697-106.667,116.793C277.333,334.267,277.555,337.815,277.874,341.333z M394.667,426.667
				c-20.212,0-38.927-6.348-54.413-17.056c14.436-7.539,33.596-14.944,54.413-14.944c20.809,0,39.961,7.4,54.409,14.948
				C433.59,420.32,414.876,426.667,394.667,426.667z M465.896,394.426c-17.077-9.841-42.693-21.092-71.229-21.092
				c-28.549,0-54.178,11.26-71.234,21.086c-15.224-16.995-24.766-39.193-24.766-63.753c0-52.938,43.063-96,96-96s96,43.063,96,96
				C490.667,355.23,481.122,377.43,465.896,394.426z"/>
			<path d="M394.667,256c-29.417,0-53.333,23.927-53.333,53.333s23.917,53.333,53.333,53.333S448,338.74,448,309.333
				S424.083,256,394.667,256z M394.667,341.333c-17.646,0-32-14.354-32-32c0-17.646,14.354-32,32-32s32,14.354,32,32
				C426.667,326.979,412.313,341.333,394.667,341.333z"/>
		</g>
	</g>
</g>
<g>
</g>
<g>
</g>
<g>
</g>
<g>
</g>
<g>
</g>
<g>
</g>
<g>
</g>
<g>
</g>
<g>
</g>
<g>
</g>
<g>
</g>
<g>
</g>
<g>
</g>
<g>
</g>
<g>
</g>
</svg>
