<?xml version="1.0" encoding="iso-8859-1"?>
<!-- Generator: Adobe Illustrator 19.0.0, SVG Export Plug-In . SVG Version: 6.00 Build 0)  -->
<svg version="1.1" id="Capa_1" xmlns="http://www.w3.org/2000/svg" xmlns:xlink="http://www.w3.org/1999/xlink" x="0px" y="0px"
	 viewBox="0 0 512 512" style="enable-background:new 0 0 512 512;" xml:space="preserve">
<g>
	<g>
		
			<rect x="35.289" y="293.37" transform="matrix(0.7071 -0.7071 0.7071 0.7071 -175.931 183.3376)" width="196.107" height="21.333"/>
	</g>
</g>
<g>
	<g>
		<path d="M480,74.667H32c-17.673,0-32,14.327-32,32v298.667c0,17.673,14.327,32,32,32h224V416H32
			c-5.891,0-10.667-4.776-10.667-10.667V106.667C21.333,100.776,26.109,96,32,96h448c5.891,0,10.667,4.776,10.667,10.667v192H512
			v-192C512,88.993,497.673,74.667,480,74.667z"/>
	</g>
</g>
<g>
	<g>
		<path d="M290.891,236.885L256,263.851L27.851,87.552l-13.035,16.885l234.667,181.333c1.862,1.451,4.157,2.236,6.517,2.229
			c2.359,0.01,4.654-0.771,6.517-2.219l41.419-32L290.891,236.885z"/>
	</g>
</g>
<g>
	<g>
		<path d="M512,437.333l0-74.667c0-1.184-0.448-29.163-39.296-42.112c-15.648-5.194-31.015-11.201-46.037-17.995v-0.491
			c26.02-12.371,42.618-38.591,42.667-67.403v-32c0-41.237-33.429-74.667-74.667-74.667C353.429,128,320,161.429,320,202.667v32
			c0.049,28.811,16.647,55.031,42.667,67.403v0.491c-15.023,6.794-30.389,12.8-46.037,17.995
			c-38.848,12.949-39.296,40.928-39.296,42.112v74.667h21.333v-74.379c0-0.576,1.067-14.293,24.704-22.176
			c18.698-6.109,36.98-13.424,54.731-21.899c3.617-1.807,5.901-5.504,5.899-9.547v-14.389c-0.003-4.515-2.848-8.54-7.104-10.048
			c-21.279-7.544-35.517-27.653-35.563-50.229v-32c0-29.455,23.878-53.333,53.333-53.333S448,173.211,448,202.667v32
			c-0.046,22.577-14.283,42.686-35.563,50.229c-4.256,1.508-7.101,5.533-7.104,10.048v14.389c-0.022,4.062,2.265,7.784,5.899,9.6
			c17.752,8.457,36.034,15.754,54.731,21.845c23.637,7.883,24.704,21.6,24.704,21.888v74.667H512z"/>
	</g>
</g>
<g>
	<g>
		<rect x="384" y="373.333" width="21.333" height="21.333"/>
	</g>
</g>
<g>
	<g>
		<rect x="426.667" y="373.333" width="21.333" height="21.333"/>
	</g>
</g>
<g>
	<g>
		<rect x="341.333" y="373.333" width="21.333" height="21.333"/>
	</g>
</g>
<g>
</g>
<g>
</g>
<g>
</g>
<g>
</g>
<g>
</g>
<g>
</g>
<g>
</g>
<g>
</g>
<g>
</g>
<g>
</g>
<g>
</g>
<g>
</g>
<g>
</g>
<g>
</g>
<g>
</g>
</svg>
